<?xml version="1.0" encoding="utf-8"?>
<!-- Generator: Adobe Illustrator 23.1.0, SVG Export Plug-In . SVG Version: 6.00 Build 0)  -->
<svg version="1.1" id="Layer_1" xmlns="http://www.w3.org/2000/svg" xmlns:xlink="http://www.w3.org/1999/xlink" x="0px" y="0px"
	 viewBox="0 0 2500 914.52" style="enable-background:new 0 0 2500 914.52;" xml:space="preserve">
<style type="text/css">
	.st0{fill:#4486F4;}
	.st1{fill:#EA4537;}
	.st2{fill:#FBBD07;}
	.st3{fill:#36A954;}
</style>
<path class="st0" d="M525.4,345.07c41.8,0,83.6,0,125.39,0c1.88,0,3.76,0.11,5.63-0.01c3.74-0.24,5.28,1.65,5.66,5.16
	c0.79,7.18,2.08,14.32,2.58,21.51c3.19,46.24-2.21,91.31-18.9,134.78c-14.85,38.68-39.2,70.44-70.54,97.15
	c-38.96,33.21-83.9,52.9-134.52,60.15c-56.59,8.11-112.03,4.09-164.68-18.78C172.54,600.1,108.99,522.17,92.56,409.99
	c-12.47-85.12,12.02-161.35,67.44-227.12c42.59-50.55,96.59-83.19,160.78-98.85c32.82-8.01,66.08-9.26,99.65-6.11
	c51.37,4.83,97.73,22.66,139.39,52.92c9.54,6.93,18.62,14.43,27.28,22.45c2.93,2.71,3.51,4.78,0.43,7.92
	c-16.53,16.81-32.85,33.82-49.35,50.66c-3.41,3.48-3.61,3.27-8.41-1.01c-20.45-18.18-43.36-32.23-69.21-41.39
	c-26.09-9.24-53.01-12.87-80.58-11.52c-57.91,2.83-106.76,25.51-146.06,68.05c-27.56,29.83-45.26,65.03-52.22,105.06
	c-11.27,64.87,2.19,124.22,43.17,176.21c31.35,39.77,72.53,64.48,122.24,74.34c43.83,8.69,86.98,5.74,128.37-11.55
	c36.57-15.28,66.28-39.23,85.68-74.48c10.97-19.94,16.83-41.64,20.17-64.05c0.73-4.86,0.38-5.19-5.27-5.24
	c-16.07-0.15-32.15-0.2-48.22-0.2c-42.33-0.02-84.67-0.01-127-0.01c-2.14,0-4.29-0.1-6.43,0c-3.67,0.17-5.29-1.27-5.27-5.16
	c0.11-23.58,0.1-47.16,0-70.73c-0.02-3.83,1.5-5.23,5.24-5.14c6.69,0.16,13.4,0.03,20.09,0.03
	C451.45,345.07,488.42,345.07,525.4,345.07z"/>
<path class="st0" d="M1805.28,328.62c2.39-2.11,1.52-4.68,1.56-6.96c0.13-5.89,0.15-11.79,0.01-17.68c-0.08-3.5,0.77-5.49,4.86-5.47
	c23.3,0.11,46.61,0.09,69.92,0.02c3.35-0.01,5.01,1.3,4.94,4.7c-0.04,1.87,0.01,3.75,0.01,5.63c0,107.96,0.07,215.91-0.04,323.87
	c-0.03,29.81-2.22,59.41-11.51,88.02c-21.13,65.11-65.93,102.89-133.06,114.33c-29.66,5.05-59.21,4.2-88.34-4.2
	c-39-11.26-70.08-33.8-94.41-65.98c-7.94-10.5-14.66-21.76-20.11-33.76c-2.52-5.56-2.52-5.72,3.27-8.15
	c20.49-8.6,41.01-17.14,61.55-25.61c5.51-2.27,5.67-2.17,8.35,3.31c9.26,18.92,22.1,34.76,39.85,46.31
	c19.09,12.42,40.05,17.11,62.74,15.34c16.27-1.27,31.77-4.79,45.89-13.14c22.59-13.35,35.12-33.91,41.49-58.74
	c5.18-20.22,4.75-40.88,4.59-61.51c-0.01-1.29,0.23-2.99-1.2-3.58c-2.73-1.14-3.69,1.54-5.02,2.93
	c-21.09,22.08-47.37,33.77-77.16,37.7c-34.21,4.52-66.92-1.7-97.28-17.73c-58.48-30.87-93.39-79.38-102.68-144.82
	c-7.89-55.61,7.03-105.75,42.64-149.25c25.69-31.38,58.2-52.87,97.81-62.42c40.98-9.89,80.31-6.07,116.62,17.02
	c6.79,4.32,13.07,9.32,18.71,15.12C1801.05,325.7,1802.47,328.17,1805.28,328.62z M1812.39,474.33c0.24-13.45-2.42-29.49-8.47-44.88
	c-11.44-29.04-30.53-50.88-60.34-61.86c-41.32-15.21-88.81,0.4-115.35,37.39c-17.44,24.31-24.28,51.58-22.37,81.17
	c2.3,35.61,16.56,65.28,45.7,86.49c43.61,31.73,103.8,24.81,137.32-19.98C1805.57,530.35,1812.54,504.99,1812.39,474.33z"/>
<path class="st1" d="M886.24,286.45c68.35,2.74,125.22,31.93,162.22,94.87c20.86,35.48,27.74,74.43,23.81,115.32
	c-3.86,40.15-18.48,75.87-45.27,106.07c-37.86,42.7-86.03,64.23-142.78,64.26c-71.87,0.03-128.55-29.94-166.43-91.69
	c-41.03-66.87-37.88-169.6,30.18-235.36c29.63-28.63,65.22-45.33,105.98-51.22C863.52,287.32,873.15,287.16,886.24,286.45z
	 M989.42,472.79c0.19-13.48-3.24-30.66-10.46-47.09c-31.39-71.49-125.7-86.08-176.15-27.24c-33.58,39.17-37.22,101.76-8.45,145.52
	c39.93,60.72,124.64,64.75,170.03,7.94C981.78,530.14,989.36,504.91,989.42,472.79z"/>
<path class="st2" d="M1297.16,667.08c-79.12-3.05-139.48-36.84-173.92-109.82c-34.29-72.69-17.41-162.23,39.7-217.5
	c30.02-29.05,66.18-45.96,107.65-51.19c48.61-6.12,94.07,3.03,134.84,30.59c49.19,33.26,75.85,80.28,81.7,139.24
	c3.6,36.34-1.9,71.34-18.48,103.81c-31.86,62.42-83.76,96.29-153.04,104.2c-3.19,0.36-6.41,0.54-9.62,0.65
	C1303.05,667.16,1300.1,667.08,1297.16,667.08z M1404.17,476.81c-0.04-24.51-5.82-45.62-17.8-64.95
	c-38.89-62.72-127.69-67.18-172.52-8.67c-31.27,40.81-32.19,102.07-2.19,144.45c38.23,53.99,115.44,59.8,161,11.84
	C1394.56,536.43,1404.21,508.39,1404.17,476.81z"/>
<path class="st1" d="M2238.59,667.19c-46.57-0.86-94.59-20.91-131.6-64.41c-27.89-32.79-41.83-71.4-44.04-114.15
	c-2.19-42.47,5.76-82.89,28.58-119.27c31.82-50.73,78.03-78.47,137.85-82.11c61.84-3.76,109.99,21.81,146.51,70.95
	c15.04,20.23,24.79,43.11,33.72,66.4c1.85,4.83,1.67,4.96-4.78,7.63c-42.07,17.43-84.14,34.84-126.22,52.25
	c-37.87,15.67-75.74,31.32-113.62,46.98c-0.99,0.41-1.95,0.9-2.97,1.23c-3.77,1.22-4.19,3.37-2.33,6.71
	c14.27,25.57,34.52,43.83,63.74,49.85c45.28,9.32,86.96-4.35,115.44-44.82c3.56-5.05,3.61-5.14,8.75-1.75
	c18.55,12.25,37.08,24.55,55.59,36.87c4.98,3.31,5.05,3.49,1.74,7.9C2366.14,639.21,2312.12,667.48,2238.59,667.19z M2143.44,470.65
	c2.96-1.01,4.73-1.51,6.41-2.2c50.89-21.13,101.77-42.27,152.64-63.43c11.76-4.89,12.03-5.64,4.21-15.85
	c-13.17-17.19-31.34-25.34-52.29-28.01c-41.66-5.31-81.43,20.75-98.76,54.2C2146.86,432.32,2142.97,450.37,2143.44,470.65z"/>
<path class="st3" d="M1941.91,375.84c0-90.02,0-180.04,0.01-270.05c0-10.38-1-9.72,9.32-9.7c22.5,0.03,45.01,0.06,67.51,0.17
	c6.7,0.03,6.71,0.15,6.85,6.57c0.03,1.34,0.01,2.68,0.01,4.02c0,179.5,0.01,359-0.03,538.5c0,11.24,1.78,10.32-10.2,10.34
	c-21.16,0.04-42.33,0.01-63.49,0.01c-1.88,0-3.75-0.09-5.63-0.02c-2.93,0.11-4.55-0.97-4.36-4.16c0.13-2.14,0.01-4.29,0.01-6.43
	C1941.91,555.34,1941.91,465.59,1941.91,375.84z"/>
</svg>
